<mxfile host="Electron" modified="2024-09-04T03:38:52.699Z" agent="Mozilla/5.0 (Windows NT 10.0; Win64; x64) AppleWebKit/537.36 (KHTML, like Gecko) draw.io/24.1.0 Chrome/120.0.6099.109 Electron/28.1.0 Safari/537.36" etag="yAIo7YrsoOMeq4YBdxSp" version="24.1.0" type="device">
  <diagram name="Page-1" id="B-BibUKvHc1AhJgCxZVp">
    <mxGraphModel dx="918" dy="593" grid="1" gridSize="10" guides="1" tooltips="1" connect="1" arrows="1" fold="1" page="1" pageScale="1" pageWidth="850" pageHeight="1100" math="0" shadow="0">
      <root>
        <mxCell id="0" />
        <mxCell id="1" parent="0" />
        <mxCell id="ynMjwL8xO-ktKMQwzbRW-33" value="" style="rounded=0;whiteSpace=wrap;html=1;fillColor=none;dashed=1;fontStyle=1;fontSize=14;" vertex="1" parent="1">
          <mxGeometry x="393" y="570" width="207" height="80" as="geometry" />
        </mxCell>
        <mxCell id="ynMjwL8xO-ktKMQwzbRW-16" style="rounded=0;orthogonalLoop=1;jettySize=auto;html=1;entryX=0;entryY=0.5;entryDx=0;entryDy=0;" edge="1" parent="1" source="ynMjwL8xO-ktKMQwzbRW-1" target="ynMjwL8xO-ktKMQwzbRW-8">
          <mxGeometry relative="1" as="geometry">
            <mxPoint x="370" y="225" as="targetPoint" />
          </mxGeometry>
        </mxCell>
        <mxCell id="ynMjwL8xO-ktKMQwzbRW-1" value="" style="rounded=0;whiteSpace=wrap;html=1;fillColor=none;dashed=1;shadow=0;" vertex="1" parent="1">
          <mxGeometry x="115" y="100" width="190" height="250" as="geometry" />
        </mxCell>
        <mxCell id="ynMjwL8xO-ktKMQwzbRW-17" style="rounded=0;orthogonalLoop=1;jettySize=auto;html=1;entryX=0;entryY=0.5;entryDx=0;entryDy=0;exitX=1;exitY=0.5;exitDx=0;exitDy=0;" edge="1" parent="1" source="ynMjwL8xO-ktKMQwzbRW-8" target="ynMjwL8xO-ktKMQwzbRW-9">
          <mxGeometry relative="1" as="geometry">
            <mxPoint x="490" y="225" as="sourcePoint" />
            <mxPoint x="570" y="225" as="targetPoint" />
          </mxGeometry>
        </mxCell>
        <mxCell id="ynMjwL8xO-ktKMQwzbRW-5" value="자산1" style="rounded=0;whiteSpace=wrap;html=1;shadow=1;sketch=1;curveFitting=1;jiggle=2;fillColor=#f5f5f5;strokeColor=#666666;fillStyle=zigzag;fontStyle=1;fontColor=#333333;" vertex="1" parent="1">
          <mxGeometry x="150" y="120" width="120" height="60" as="geometry" />
        </mxCell>
        <mxCell id="ynMjwL8xO-ktKMQwzbRW-6" value="자산2" style="rounded=0;whiteSpace=wrap;html=1;shadow=1;sketch=1;curveFitting=1;jiggle=2;fillColor=#f5f5f5;strokeColor=#666666;fillStyle=zigzag;fontStyle=1;fontColor=#333333;" vertex="1" parent="1">
          <mxGeometry x="150" y="195" width="120" height="60" as="geometry" />
        </mxCell>
        <mxCell id="ynMjwL8xO-ktKMQwzbRW-7" value="자산 N" style="rounded=0;whiteSpace=wrap;html=1;shadow=1;sketch=1;curveFitting=1;jiggle=2;fillColor=#f5f5f5;strokeColor=#666666;fillStyle=zigzag;fontStyle=1;fontColor=#333333;" vertex="1" parent="1">
          <mxGeometry x="150" y="280" width="120" height="60" as="geometry" />
        </mxCell>
        <mxCell id="ynMjwL8xO-ktKMQwzbRW-8" value="자산 포트폴리오" style="rounded=0;whiteSpace=wrap;html=1;shadow=1;sketch=1;curveFitting=1;jiggle=2;fontStyle=1;fillColor=#b1ddf0;strokeColor=#10739e;" vertex="1" parent="1">
          <mxGeometry x="370" y="195" width="120" height="60" as="geometry" />
        </mxCell>
        <mxCell id="ynMjwL8xO-ktKMQwzbRW-9" value="최종 포트폴리오" style="rounded=0;whiteSpace=wrap;html=1;shadow=1;sketch=1;curveFitting=1;jiggle=2;fontStyle=1;fillColor=#e3c800;strokeColor=#B09500;fontColor=#000000;" vertex="1" parent="1">
          <mxGeometry x="560" y="195" width="120" height="60" as="geometry" />
        </mxCell>
        <mxCell id="ynMjwL8xO-ktKMQwzbRW-15" value="" style="endArrow=none;dashed=1;html=1;dashPattern=1 3;strokeWidth=2;rounded=0;" edge="1" parent="1">
          <mxGeometry width="50" height="50" relative="1" as="geometry">
            <mxPoint x="209.70999999999998" y="255" as="sourcePoint" />
            <mxPoint x="209.70999999999998" y="285" as="targetPoint" />
          </mxGeometry>
        </mxCell>
        <mxCell id="ynMjwL8xO-ktKMQwzbRW-20" value="횡적&amp;nbsp;&lt;div&gt;배분모델&lt;/div&gt;" style="text;html=1;align=center;verticalAlign=middle;whiteSpace=wrap;rounded=0;shadow=1;sketch=1;curveFitting=1;jiggle=2;fontSize=14;" vertex="1" parent="1">
          <mxGeometry x="273" y="230" width="135" height="57.27" as="geometry" />
        </mxCell>
        <mxCell id="ynMjwL8xO-ktKMQwzbRW-21" value="종적&amp;nbsp;&lt;div&gt;배분모델&lt;/div&gt;" style="text;html=1;align=center;verticalAlign=middle;whiteSpace=wrap;rounded=0;shadow=1;sketch=1;curveFitting=1;jiggle=2;fontSize=14;" vertex="1" parent="1">
          <mxGeometry x="457" y="230" width="135" height="57.27" as="geometry" />
        </mxCell>
        <mxCell id="ynMjwL8xO-ktKMQwzbRW-23" value="전체 가용자본" style="rounded=0;whiteSpace=wrap;html=1;fontStyle=1;sketch=1;curveFitting=1;jiggle=2;fontSize=14;fillColor=#ffcccc;strokeColor=#36393d;" vertex="1" parent="1">
          <mxGeometry x="400" y="370" width="260" height="60" as="geometry" />
        </mxCell>
        <mxCell id="ynMjwL8xO-ktKMQwzbRW-32" style="edgeStyle=orthogonalEdgeStyle;rounded=0;orthogonalLoop=1;jettySize=auto;html=1;fontStyle=1;fontSize=14;entryX=0.49;entryY=-0.04;entryDx=0;entryDy=0;entryPerimeter=0;" edge="1" parent="1" source="ynMjwL8xO-ktKMQwzbRW-24" target="ynMjwL8xO-ktKMQwzbRW-33">
          <mxGeometry relative="1" as="geometry">
            <mxPoint x="495" y="550" as="targetPoint" />
          </mxGeometry>
        </mxCell>
        <mxCell id="ynMjwL8xO-ktKMQwzbRW-24" value="자산 포트폴리오" style="rounded=0;whiteSpace=wrap;html=1;fontStyle=1;sketch=1;curveFitting=1;jiggle=2;fillColor=#e3c800;strokeColor=#B09500;fontColor=#000000;fontSize=14;" vertex="1" parent="1">
          <mxGeometry x="400" y="470" width="190" height="60" as="geometry" />
        </mxCell>
        <mxCell id="ynMjwL8xO-ktKMQwzbRW-25" value="현금" style="rounded=0;whiteSpace=wrap;html=1;fontStyle=1;sketch=1;curveFitting=1;jiggle=2;fontSize=14;fillColor=#dae8fc;strokeColor=#6c8ebf;" vertex="1" parent="1">
          <mxGeometry x="600" y="470" width="60" height="60" as="geometry" />
        </mxCell>
        <mxCell id="ynMjwL8xO-ktKMQwzbRW-26" value="자산1" style="rounded=0;whiteSpace=wrap;html=1;flipH=1;fontStyle=1;sketch=1;curveFitting=1;jiggle=2;fontSize=14;fillColor=#f5f5f5;fontColor=#333333;strokeColor=#666666;" vertex="1" parent="1">
          <mxGeometry x="400" y="580" width="70" height="60" as="geometry" />
        </mxCell>
        <mxCell id="ynMjwL8xO-ktKMQwzbRW-27" value="2" style="rounded=0;whiteSpace=wrap;html=1;flipH=1;fontStyle=1;sketch=1;curveFitting=1;jiggle=2;fontSize=14;fillColor=#f5f5f5;fontColor=#333333;strokeColor=#666666;" vertex="1" parent="1">
          <mxGeometry x="480" y="580" width="33" height="60" as="geometry" />
        </mxCell>
        <mxCell id="ynMjwL8xO-ktKMQwzbRW-28" value="3" style="rounded=0;whiteSpace=wrap;html=1;flipH=1;fontStyle=1;sketch=1;curveFitting=1;jiggle=2;fontSize=14;fillColor=#f5f5f5;fontColor=#333333;strokeColor=#666666;" vertex="1" parent="1">
          <mxGeometry x="523" y="580" width="30" height="60" as="geometry" />
        </mxCell>
        <mxCell id="ynMjwL8xO-ktKMQwzbRW-30" value="4" style="rounded=0;whiteSpace=wrap;html=1;flipH=1;fontStyle=1;sketch=1;curveFitting=1;jiggle=2;fontSize=14;fillColor=#f5f5f5;fontColor=#333333;strokeColor=#666666;" vertex="1" parent="1">
          <mxGeometry x="562" y="580" width="30" height="60" as="geometry" />
        </mxCell>
        <mxCell id="ynMjwL8xO-ktKMQwzbRW-31" style="edgeStyle=orthogonalEdgeStyle;rounded=0;orthogonalLoop=1;jettySize=auto;html=1;entryX=0.684;entryY=-0.05;entryDx=0;entryDy=0;entryPerimeter=0;fontStyle=1;fontSize=14;" edge="1" parent="1" source="ynMjwL8xO-ktKMQwzbRW-23" target="ynMjwL8xO-ktKMQwzbRW-24">
          <mxGeometry relative="1" as="geometry" />
        </mxCell>
        <mxCell id="ynMjwL8xO-ktKMQwzbRW-34" value="종적&amp;nbsp;&lt;span style=&quot;background-color: initial;&quot;&gt;배분모델&lt;/span&gt;" style="text;html=1;align=center;verticalAlign=middle;whiteSpace=wrap;rounded=0;shadow=1;sketch=1;curveFitting=1;jiggle=2;fontSize=14;" vertex="1" parent="1">
          <mxGeometry x="523" y="420" width="127" height="57.27" as="geometry" />
        </mxCell>
        <mxCell id="ynMjwL8xO-ktKMQwzbRW-35" value="횡적&amp;nbsp;&lt;span style=&quot;background-color: initial;&quot;&gt;배분모델&lt;/span&gt;" style="text;html=1;align=center;verticalAlign=middle;whiteSpace=wrap;rounded=0;shadow=1;sketch=1;curveFitting=1;jiggle=2;fontSize=14;" vertex="1" parent="1">
          <mxGeometry x="493" y="521" width="107" height="57.27" as="geometry" />
        </mxCell>
      </root>
    </mxGraphModel>
  </diagram>
</mxfile>
